<svg width="119" height="58" viewBox="0 0 119 58" fill="none" xmlns="http://www.w3.org/2000/svg">
<circle cx="90" cy="29" r="29" fill="#8D706C"/>
<path d="M0.952 20.176C1.43733 20.1947 2.072 20.2133 2.856 20.232C3.64 20.2507 4.424 20.26 5.208 20.26C6.104 20.26 6.972 20.2507 7.812 20.232C8.652 20.2133 9.24933 20.204 9.604 20.204C11.9187 20.204 13.6453 20.6147 14.784 21.436C15.9413 22.2573 16.52 23.312 16.52 24.6C16.52 25.2533 16.324 25.916 15.932 26.588C15.54 27.26 14.9333 27.8573 14.112 28.38C13.2907 28.9027 12.2267 29.2853 10.92 29.528V29.584C12.6747 29.7147 14.0653 30.032 15.092 30.536C16.1187 31.04 16.856 31.6467 17.304 32.356C17.752 33.0653 17.976 33.8027 17.976 34.568C17.976 35.744 17.668 36.7333 17.052 37.536C16.436 38.3387 15.5493 38.9547 14.392 39.384C13.2347 39.7947 11.8533 40 10.248 40C9.8 40 9.156 39.9907 8.316 39.972C7.476 39.9347 6.45867 39.916 5.264 39.916C4.44267 39.916 3.64 39.9253 2.856 39.944C2.072 39.944 1.43733 39.9627 0.952 40V39.44C1.54933 39.4027 1.99733 39.328 2.296 39.216C2.59467 39.104 2.79067 38.88 2.884 38.544C2.996 38.208 3.052 37.704 3.052 37.032V23.144C3.052 22.4533 2.996 21.9493 2.884 21.632C2.79067 21.296 2.58533 21.072 2.268 20.96C1.96933 20.8293 1.53067 20.7547 0.952 20.736V20.176ZM9.24 20.736C8.512 20.736 8.036 20.8947 7.812 21.212C7.60667 21.5293 7.504 22.1733 7.504 23.144V37.032C7.504 37.6853 7.55067 38.18 7.644 38.516C7.756 38.852 7.94267 39.076 8.204 39.188C8.484 39.3 8.89467 39.356 9.436 39.356C10.78 39.356 11.76 38.936 12.376 38.096C13.0107 37.2373 13.328 36.024 13.328 34.456C13.328 33.0187 12.964 31.908 12.236 31.124C11.5267 30.34 10.3413 29.948 8.68 29.948H6.3C6.3 29.948 6.3 29.8733 6.3 29.724C6.3 29.556 6.3 29.472 6.3 29.472H8.708C9.58533 29.472 10.2573 29.2667 10.724 28.856C11.1907 28.4267 11.5173 27.8667 11.704 27.176C11.8907 26.4667 11.984 25.7107 11.984 24.908C11.984 23.5267 11.7693 22.4907 11.34 21.8C10.9107 21.0907 10.2107 20.736 9.24 20.736ZM26.7085 25.132C28.3512 25.132 29.6392 25.6173 30.5725 26.588C31.5058 27.5587 31.9725 29.1453 31.9725 31.348H22.7605L22.7045 30.816H28.4445C28.4632 29.9013 28.4072 29.0613 28.2765 28.296C28.1458 27.512 27.9405 26.8867 27.6605 26.42C27.3805 25.9533 27.0072 25.72 26.5405 25.72C25.8872 25.72 25.3272 26.1307 24.8605 26.952C24.4125 27.7733 24.1418 29.136 24.0485 31.04L24.1325 31.208C24.1138 31.432 24.0952 31.6653 24.0765 31.908C24.0765 32.1507 24.0765 32.4027 24.0765 32.664C24.0765 33.952 24.2538 34.9973 24.6085 35.8C24.9818 36.6027 25.4485 37.1907 26.0085 37.564C26.5685 37.9187 27.1378 38.096 27.7165 38.096C28.1085 38.096 28.5098 38.04 28.9205 37.928C29.3498 37.7973 29.7792 37.5733 30.2085 37.256C30.6378 36.92 31.0392 36.4533 31.4125 35.856L31.9165 36.024C31.6925 36.7333 31.3378 37.424 30.8525 38.096C30.3672 38.768 29.7512 39.3187 29.0045 39.748C28.2578 40.1773 27.3618 40.392 26.3165 40.392C25.0472 40.392 23.9272 40.1213 22.9565 39.58C21.9858 39.0387 21.2205 38.2173 20.6605 37.116C20.1192 36.0147 19.8485 34.6147 19.8485 32.916C19.8485 31.18 20.1378 29.7333 20.7165 28.576C21.3138 27.4187 22.1258 26.56 23.1525 26C24.1978 25.4213 25.3832 25.132 26.7085 25.132ZM39.3059 18.076V37.396C39.3059 38.18 39.4365 38.712 39.6979 38.992C39.9779 39.272 40.4445 39.412 41.0979 39.412V40C40.7432 39.9813 40.2112 39.9627 39.5019 39.944C38.7925 39.9067 38.0739 39.888 37.3459 39.888C36.6179 39.888 35.8805 39.9067 35.1339 39.944C34.4059 39.9627 33.8552 39.9813 33.4819 40V39.412C34.1352 39.412 34.5925 39.272 34.8539 38.992C35.1339 38.712 35.2739 38.18 35.2739 37.396V21.436C35.2739 20.596 35.1432 19.98 34.8819 19.588C34.6392 19.1773 34.1725 18.972 33.4819 18.972V18.384C34.0792 18.44 34.6579 18.468 35.2179 18.468C35.9832 18.468 36.7112 18.44 37.4019 18.384C38.0925 18.3093 38.7272 18.2067 39.3059 18.076ZM51.9212 20.12L58.7252 37.648C58.9865 38.32 59.2759 38.7867 59.5932 39.048C59.9292 39.2907 60.2279 39.4213 60.4892 39.44V40C59.9292 39.9627 59.2665 39.944 58.5012 39.944C57.7545 39.9253 56.9985 39.916 56.2332 39.916C55.3745 39.916 54.5625 39.9253 53.7972 39.944C53.0319 39.944 52.4252 39.9627 51.9772 40V39.44C52.9292 39.4027 53.5265 39.244 53.7692 38.964C54.0305 38.6653 53.9745 38.04 53.6012 37.088L48.8412 24.068L49.3452 23.34L45.0892 34.428C44.6785 35.4547 44.4265 36.2947 44.3332 36.948C44.2585 37.6013 44.3052 38.1053 44.4732 38.46C44.6599 38.8147 44.9492 39.0667 45.3412 39.216C45.7519 39.3467 46.2372 39.4213 46.7972 39.44V40C46.1812 39.9627 45.5932 39.944 45.0332 39.944C44.4732 39.9253 43.9039 39.916 43.3252 39.916C42.9145 39.916 42.5225 39.9253 42.1492 39.944C41.7945 39.944 41.4772 39.9627 41.1972 40V39.44C41.5892 39.3653 41.9905 39.1133 42.4012 38.684C42.8119 38.2547 43.2132 37.5267 43.6052 36.5L49.9892 20.12C50.2879 20.1387 50.6052 20.148 50.9412 20.148C51.2959 20.148 51.6225 20.1387 51.9212 20.12ZM53.8812 31.936V32.496H45.5372L45.8172 31.936H53.8812ZM70.597 25.132C71.1943 25.132 71.6796 25.2627 72.053 25.524C72.4263 25.7667 72.697 26.084 72.865 26.476C73.0516 26.868 73.145 27.2787 73.145 27.708C73.145 28.3987 72.9396 28.968 72.529 29.416C72.137 29.8453 71.6143 30.06 70.961 30.06C70.3076 30.06 69.7943 29.9013 69.421 29.584C69.0663 29.248 68.889 28.8093 68.889 28.268C68.889 27.7453 69.001 27.316 69.225 26.98C69.4676 26.6253 69.7663 26.3267 70.121 26.084C69.8596 26.0093 69.5983 26.0187 69.337 26.112C68.9823 26.168 68.6463 26.3173 68.329 26.56C68.0116 26.784 67.741 27.0733 67.517 27.428C67.293 27.764 67.1156 28.1373 66.985 28.548C66.8543 28.94 66.789 29.3227 66.789 29.696V37.116C66.789 38.012 67.0036 38.6187 67.433 38.936C67.881 39.2533 68.5436 39.412 69.421 39.412V40C68.9916 39.9813 68.3663 39.9627 67.545 39.944C66.7236 39.9067 65.865 39.888 64.969 39.888C64.2223 39.888 63.4663 39.9067 62.701 39.944C61.9356 39.9627 61.357 39.9813 60.965 40V39.412C61.6183 39.412 62.0756 39.272 62.337 38.992C62.617 38.712 62.757 38.18 62.757 37.396V28.576C62.757 27.736 62.6263 27.12 62.365 26.728C62.1223 26.3173 61.6556 26.112 60.965 26.112V25.524C61.5623 25.58 62.141 25.608 62.701 25.608C63.485 25.608 64.213 25.58 64.885 25.524C65.5756 25.4493 66.2103 25.3467 66.789 25.216V27.82C67.013 27.316 67.3116 26.8587 67.685 26.448C68.0583 26.0373 68.4876 25.72 68.973 25.496C69.4583 25.2533 69.9996 25.132 70.597 25.132ZM80.9325 25.132C81.6605 25.132 82.3231 25.216 82.9205 25.384C83.5365 25.5333 84.0405 25.7293 84.4325 25.972C84.9178 26.2707 85.2911 26.644 85.5525 27.092C85.8325 27.5213 85.9725 28.0253 85.9725 28.604C85.9725 29.2573 85.7671 29.7987 85.3565 30.228C84.9458 30.6387 84.4138 30.844 83.7605 30.844C83.1071 30.844 82.5845 30.6573 82.1925 30.284C81.8005 29.9107 81.6045 29.4067 81.6045 28.772C81.6045 28.1747 81.7911 27.68 82.1645 27.288C82.5378 26.8773 82.9671 26.6067 83.4525 26.476C83.3031 26.2893 83.0791 26.1307 82.7805 26C82.4818 25.8693 82.1458 25.804 81.7725 25.804C81.1938 25.804 80.6805 25.972 80.2325 26.308C79.8031 26.644 79.4391 27.1107 79.1405 27.708C78.8418 28.3053 78.6085 29.0053 78.4405 29.808C78.2911 30.6107 78.2165 31.488 78.2165 32.44C78.2165 33.8773 78.3938 35.0067 78.7485 35.828C79.1218 36.6493 79.5885 37.228 80.1485 37.564C80.7271 37.9 81.3245 38.068 81.9405 38.068C82.2951 38.068 82.6778 38.012 83.0885 37.9C83.5178 37.788 83.9471 37.564 84.3765 37.228C84.8245 36.892 85.2351 36.416 85.6085 35.8L86.0845 35.968C85.8791 36.6587 85.5431 37.3493 85.0765 38.04C84.6098 38.7307 84.0031 39.3 83.2565 39.748C82.5098 40.1773 81.5951 40.392 80.5125 40.392C79.2991 40.392 78.1978 40.1307 77.2085 39.608C76.2378 39.0667 75.4538 38.2453 74.8565 37.144C74.2778 36.024 73.9885 34.5867 73.9885 32.832C73.9885 31.152 74.2871 29.7427 74.8845 28.604C75.5005 27.4467 76.3311 26.5787 77.3765 26C78.4218 25.4213 79.6071 25.132 80.9325 25.132ZM93.2271 18.104V27.736C93.6938 26.7653 94.3191 26.0933 95.1031 25.72C95.9058 25.328 96.8018 25.132 97.7911 25.132C98.5938 25.132 99.2378 25.2347 99.7231 25.44C100.208 25.6267 100.591 25.888 100.871 26.224C101.188 26.5787 101.412 27.036 101.543 27.596C101.692 28.156 101.767 28.912 101.767 29.864V37.396C101.767 38.18 101.898 38.712 102.159 38.992C102.439 39.272 102.906 39.412 103.559 39.412V40C103.204 39.9813 102.663 39.9627 101.935 39.944C101.226 39.9067 100.535 39.888 99.8631 39.888C99.1351 39.888 98.4258 39.9067 97.7351 39.944C97.0631 39.9627 96.5591 39.9813 96.2231 40V39.412C96.7831 39.412 97.1751 39.272 97.3991 38.992C97.6231 38.712 97.7351 38.18 97.7351 37.396V28.688C97.7351 28.2213 97.6884 27.82 97.5951 27.484C97.5018 27.1293 97.3244 26.8587 97.0631 26.672C96.8204 26.4667 96.4658 26.364 95.9991 26.364C95.4951 26.364 95.0284 26.504 94.5991 26.784C94.1884 27.0453 93.8524 27.4187 93.5911 27.904C93.3484 28.3893 93.2271 28.9493 93.2271 29.584V37.396C93.2271 38.18 93.3391 38.712 93.5631 38.992C93.7871 39.272 94.1791 39.412 94.7391 39.412V40C94.4031 39.9813 93.9084 39.9627 93.2551 39.944C92.6018 39.9067 91.9391 39.888 91.2671 39.888C90.5391 39.888 89.8018 39.9067 89.0551 39.944C88.3271 39.9627 87.7764 39.9813 87.4031 40V39.412C88.0564 39.412 88.5138 39.272 88.7751 38.992C89.0551 38.712 89.1951 38.18 89.1951 37.396V21.464C89.1951 20.624 89.0644 20.008 88.8031 19.616C88.5604 19.2053 88.0938 19 87.4031 19V18.412C88.0004 18.468 88.5791 18.496 89.1391 18.496C89.9044 18.496 90.6324 18.468 91.3231 18.412C92.0138 18.3373 92.6484 18.2347 93.2271 18.104Z" fill="white"/>
</svg>
